<svg xmlns="http://www.w3.org/2000/svg" viewBox="0 0 453.54331 226.77165"><defs><style>.cls-1{fill:#fff;}.cls-2{fill:#cf0039;}.cls-3{fill:#f18a00;}</style></defs><g id="Naamsvierkant"><rect x="226.77165" width="226.77035" height="226.77165"/><path id="Digipolis" class="cls-1" d="M262.606,120.98267c.75166.04674,1.50463.09478,2.21085.09478,5.03322,0,7.38559-3.99982,7.38559-11.33865,0-7.19733-2.21088-11.05434-7.43232-11.05434-.70622,0-1.45919,0-2.16412.04673Zm-6.35089-26.95493c3.1988,0,6.02113-.09476,8.93824-.09476,10.06639,0,13.68843,6.58586,13.68843,15.10089,0,10.63241-4.70476,16.88723-15.0996,16.88723-2.49387,0-5.128-.09347-7.52707-.14021Zm27.60535,8.18476h6.06918v23.56787h-6.06918Zm3.05861-3.05731c-2.91711,0-3.622-.753-3.622-3.15207,0-2.35238.75166-3.15208,3.622-3.15208,2.91709,0,3.57529.70623,3.57529,3.15208,0,2.35237-.70493,3.15207-3.57529,3.15207m22.05816,7.33845a9.72237,9.72237,0,0,0-2.91581-.47125c-3.01057,0-5.128,2.58865-5.128,7.52708,0,4.84624,1.50592,7.38556,3.905,7.38556a7.47264,7.47264,0,0,0,4.13873-1.97459Zm6.06918,18.39317c0,7.57382-4.51651,9.45623-10.06641,9.45623a22.31311,22.31311,0,0,1-8.3748-1.88241l.47124-3.38835a47.14138,47.14138,0,0,0,7.24407.801c3.19882,0,4.65672-.98924,4.65672-3.99981v-2.7743a10.21649,10.21649,0,0,1-5.97311,2.35238c-5.411,0-8.28-4.98647-8.28-11.00761,0-8.84476,5.1747-12.74851,12.18378-12.74851a39.3,39.3,0,0,1,8.13856.98795Zm6.10826-22.67431h6.06918v23.56787h-6.06918Zm3.05861-3.05731c-2.91711,0-3.622-.753-3.622-3.15207,0-2.35238.75166-3.15208,3.622-3.15208,2.91709,0,3.57529.70623,3.57529,3.15208,0,2.35237-.70493,3.15207-3.57529,3.15207M339.40439,121.5a7.57737,7.57737,0,0,0,2.82235.47125c3.05728,0,5.2214-2.49387,5.2214-8.0931,0-4.845-1.45788-7.52577-3.857-7.52577a6.97985,6.97985,0,0,0-4.18677,1.97588Zm-6.06916,12.41876V102.21237H338.275l.46995,2.39911a10.02216,10.02216,0,0,1,6.53912-2.9158c5.646,0,8.37353,5.07993,8.37353,11.33605,0,9.31473-4.98647,13.26651-11.7606,13.26651a22.92562,22.92562,0,0,1-2.49256-.14151v7.76205Zm34.71148-27.75358c-2.77686,0-4.65672,1.92786-4.65672,7.2908,0,6.6326,1.6929,8.37222,4.70347,8.37222,2.72885,0,4.65672-1.92786,4.65672-7.29081,0-6.6326-1.73961-8.37221-4.70347-8.37221m-.47122,20.13278c-6.67936,0-10.44288-3.38705-10.44288-11.854,0-8.70326,4.375-12.74851,11.38406-12.74851,6.67936,0,10.44288,3.38706,10.44288,11.854,0,8.65522-4.375,12.74851-11.38406,12.74851m25.2074-.7531a13.533,13.533,0,0,1-4.375.61276c-3.05728,0-4.65668-.94121-4.65668-4.75148V92.42861H389.819v26.57715c0,2.63408.32975,3.01057,1.60071,3.01057.32844,0,.7997-.04544,1.12814-.04544Zm3.9006-23.33238h6.06919v23.56787h-6.06919Zm3.05862-3.05731c-2.91711,0-3.622-.753-3.622-3.15207,0-2.35238.75164-3.15208,3.622-3.15208,2.91708,0,3.5753.70623,3.5753,3.15208,0,2.35237-.70493,3.15207-3.5753,3.15207m7.89914,22.01534a24.38463,24.38463,0,0,0,5.83288.801c3.01057,0,4.18676-1.17748,4.18676-2.68212,0-4.28153-10.44288-2.40041-10.44288-10.53765,0-4.18676,3.43377-7.05583,8.60851-7.05583a13.6727,13.6727,0,0,1,6.58586,1.73962l-.65822,3.10534a20.02019,20.02019,0,0,0-4.65668-.70623c-2.44716,0-3.52859,1.12946-3.52859,2.44715,0,4.28022,10.48964,2.35107,10.48964,10.53634,0,4.32827-3.52728,7.43231-9.50167,7.43231a15.49943,15.49943,0,0,1-7.43362-1.92786Z"/></g><g id="logo_Antwerpen" data-name="logo Antwerpen"><rect class="cls-2" width="226.77035" height="226.77165"/><path id="A" class="cls-1" d="M118.82341,102.51129c-2.30693-6.75334-4.61387-13.67285-5.768-17.957-1.15282,4.28412-3.45845,11.20363-5.76538,17.957L99.87461,123.436h26.36293Zm24.38316,68.53689L134.145,145.34733H91.96845l-9.06287,25.70085H58.194l44.155-115.3247h22.406l43.82269,115.3247Z"/><path id="straaltjes" class="cls-3" d="M53.53441,116.61719a3.08748,3.08748,0,0,1-3.91153,1.94473L17.46079,107.76983a3.09188,3.09188,0,0,1-1.946-3.91154l2.67563-7.96847a3.0882,3.0882,0,0,1,3.91024-1.94473l32.16208,10.7947a3.08781,3.08781,0,0,1,1.946,3.91023Zm-4.42265,17.28216a3.08941,3.08941,0,0,0-3.90894-1.94863l-22.911,8.13205a3.08889,3.08889,0,0,0-1.94863,3.90894l2.66914,7.96976a3.08678,3.08678,0,0,0,3.90894,1.94863L49.831,145.77935a3.08871,3.08871,0,0,0,1.94864-3.91024ZM45.4739,68.32681a3.08831,3.08831,0,0,0-.55434,4.33346l14.518,19.498a3.09232,3.09232,0,0,0,4.33346.55564l6.64948-5.13965a3.09117,3.09117,0,0,0,.55434-4.33475l-14.518-19.49926a3.09094,3.09094,0,0,0-4.33345-.55435Zm127.76321,48.29038a3.08746,3.08746,0,0,0,3.91151,1.94473l32.1634-10.79209a3.09116,3.09116,0,0,0,1.94473-3.91154l-2.67432-7.96847a3.09013,3.09013,0,0,0-3.91154-1.94473l-32.1608,10.7947a3.08749,3.08749,0,0,0-1.94733,3.91023Zm1.75571,25.25192a3.08765,3.08765,0,0,0,1.94862,3.91024l22.90837,8.13075a3.08715,3.08715,0,0,0,3.91025-1.94863l2.66783-7.96976a3.08677,3.08677,0,0,0-1.94861-3.90894l-22.90968-8.13205a3.08889,3.08889,0,0,0-3.909,1.94863Zm-.345-78.68325a3.0894,3.0894,0,0,0-4.33217.55435l-14.518,19.49926a3.08981,3.08981,0,0,0,.553,4.33475l6.64948,5.13965a3.09215,3.09215,0,0,0,4.33345-.55564l14.518-19.498a3.08813,3.08813,0,0,0-.553-4.33346Z"/></g></svg>